<?xml version="1.0" encoding="UTF-8"?>
<svg version="1.1" xmlns="http://www.w3.org/2000/svg" width="32" height="32">
<path d="M0 0 C2.31 0.66 4.62 1.32 7 2 C7.20871753 11.24154826 7.14982548 19.9400212 5 29 C2.6568787 28.74438677 0.32156597 28.40729228 -2 28 C-2.33 27.34 -2.66 26.68 -3 26 C-3.99 25.67 -4.98 25.34 -6 25 C-7.6875 22.4375 -7.6875 22.4375 -9 20 C-10.98 22.64 -12.96 25.28 -15 28 C-16.32 27.67 -17.64 27.34 -19 27 C-17.97558191 23.18171439 -16.70141934 20.48340522 -14.25 17.4375 C-12.89972529 15.73010033 -12.89972529 15.73010033 -12 14 C-12.59742124 11.38119246 -12.59742124 11.38119246 -14 9 C-14.31578947 3.63157895 -14.31578947 3.63157895 -13 1 C-12.34 1 -11.68 1 -11 1 C-11 1.66 -11 2.32 -11 3 C-10.34 3 -9.68 3 -9 3 C-8.34 4.65 -7.68 6.3 -7 8 C-4.69 5.36 -2.38 2.72 0 0 Z M-3 12 C-3.66 13.32 -4.32 14.64 -5 16 C-4.01 17.32 -3.02 18.64 -2 20 C-2 17.36 -2 14.72 -2 12 C-2.33 12 -2.66 12 -3 12 Z " fill="#DADADA" transform="translate(20,0)"/>
</svg>
